<?xml version="1.0" encoding="UTF-8"?>
<svg width="32px" height="32px" viewBox="0 0 32 32" version="1.1" xmlns="http://www.w3.org/2000/svg" xmlns:xlink="http://www.w3.org/1999/xlink">
    <!-- Generator: Sketch 63.1 (92452) - https://sketch.com -->
    <title>ABC_suggest widget_choose books</title>
    <desc>Created with Sketch.</desc>
    <g id="Beta" stroke="none" stroke-width="1" fill="none" fill-rule="evenodd">
        <g id="Learn-More_Modal-(Desktop)" transform="translate(-216.000000, -99.000000)" fill="#36C2B4" fill-rule="nonzero">
            <g id="Choose-books" transform="translate(177.000000, 93.000000)">
                <g id="ABC_suggest-widget_choose-books" transform="translate(39.000000, 6.000000)">
                    <path d="M23.4422995,20.1994632 C26.8214313,15.3260618 26.4321492,8.77435091 22.4997056,4.33538029 C18.567262,-0.103590331 12.1102851,-1.27998569 6.86500832,1.48689782 C1.61973152,4.25378133 -1.05515121,10.2472326 0.388141084,15.9992306 C1.83143337,21.7512285 7.01904194,25.7718222 12.9492345,25.734555 C15.575566,25.7181822 18.1357243,24.9089893 20.29438,23.4129644 L28.649483,31.7680674 C28.8850254,32.0032204 29.2665022,32.0032204 29.5020446,31.7680674 L31.8236352,29.4464768 C32.0587883,29.2109344 32.0587883,28.8294576 31.8236352,28.5939152 L23.4422995,20.1994632 Z M14.8511026,22.8227295 C10.4376587,23.6834122 5.98029686,21.5576368 3.8713005,17.5863151 C1.76230414,13.6149935 2.49745433,8.73170049 5.68219309,5.55731861 C8.86693184,2.38293673 13.7525935,1.66369689 17.7170244,3.78561793 C21.6814553,5.90753897 23.7927004,10.3718015 22.9176463,14.7824184 C22.0957954,18.8412054 18.9138598,22.0076193 14.8511026,22.8096131 L14.8511026,22.8227295 Z" id="Shape"></path>
                </g>
            </g>
        </g>
    </g>
</svg>