<?xml version="1.0" encoding="UTF-8"?>
<svg width="31px" height="32px" viewBox="0 0 31 32" version="1.1" xmlns="http://www.w3.org/2000/svg" xmlns:xlink="http://www.w3.org/1999/xlink">
    <!-- Generator: Sketch 63.1 (92452) - https://sketch.com -->
    <title>ABC_suggest widget_join or create</title>
    <desc>Created with Sketch.</desc>
    <g id="Beta" stroke="none" stroke-width="1" fill="none" fill-rule="evenodd">
        <g id="Learn-More_Modal-(Desktop)" transform="translate(-72.000000, -99.000000)" fill="#36C2B4">
            <g id="Join-or-Create" transform="translate(33.000000, 93.000000)">
                <g id="ABC_suggest-widget_join-or-create" transform="translate(39.000000, 6.000000)">
                    <path d="M23.5076923,18.5846154 L23.5076923,21.3046154 C23.5483975,21.652998 23.3854269,21.9937977 23.0886923,22.1808164 C22.7919577,22.3678351 22.4141961,22.3678351 22.1174615,22.1808164 C21.820727,21.9937977 21.6577563,21.652998 21.6984615,21.3046154 L21.6984615,18.5846154 L18.9661538,18.5846154 C18.5071613,18.5309864 18.1610804,18.1421149 18.1610804,17.68 C18.1610804,17.2178851 18.5071613,16.8290136 18.9661538,16.7753846 L21.6984615,16.7753846 L21.6984615,14.0430769 C21.7520905,13.5840844 22.140962,13.2380035 22.6030769,13.2380035 C23.0651919,13.2380035 23.4540634,13.5840844 23.5076923,14.0430769 L23.5076923,16.7753846 L26.2276923,16.7753846 C26.576075,16.7346794 26.9168746,16.8976501 27.1038933,17.1943846 C27.290912,17.4911192 27.290912,17.8688808 27.1038933,18.1656154 C26.9168746,18.4623499 26.576075,18.6253206 26.2276923,18.5846154 L23.5076923,18.5846154 Z M22.5969231,25.8461632 C25.9034285,25.8511335 28.8871236,23.863175 30.1559204,20.8097904 C31.4247172,17.7564059 30.7285705,14.2393338 28.392278,11.8995176 C26.0559856,9.55970131 22.5399667,8.85825459 19.4846734,10.122448 C16.42938,11.3866414 14.4369231,14.367337 14.4369231,17.6738462 C14.4369231,22.182485 18.0882894,25.8393637 22.5969231,25.8461632 L22.5969231,25.8461632 Z M22.5969231,24.0369351 C25.1716616,24.0419032 27.495645,22.4947508 28.4844075,20.1174305 C29.47317,17.7401101 28.9318143,15.001221 27.1129591,13.178841 C25.294104,11.3564609 22.5562681,10.8098034 20.1770379,11.7939613 C17.7978076,12.7781192 16.2461538,15.0991028 16.2461538,17.6738462 C16.2528973,21.1804797 19.0903091,24.0233904 22.5969231,24.0369351 Z" id="Shape"></path>
                    <path d="M24,11.0769231 L24.6153846,11.0769231 L24.6153846,0.615384615 C24.6153846,0.275517077 24.3398675,0 24,0 L0.615384615,0 C0.275517077,0 0,0.275517077 0,0.615384615 L0,31.3846154 C0,31.7244829 0.275517077,32 0.615384615,32 L24,32 C24.3398675,32 24.6153846,31.7244829 24.6153846,31.3846154 L24.6153846,24.9353846 L22.1538462,25.0461538 L22.1538462,29.5384615 L6.15384615,29.5384615 L6.15384615,2.46153846 L22.1538462,2.46153846 L22.1538462,11.0769231 L24,11.0769231 Z M3.86461538,29.5384615 L2.36307692,29.5384615 L2.36307692,2.46153846 L3.86461538,2.46153846 L3.86461538,29.5384615 Z" id="Shape"></path>
                </g>
            </g>
        </g>
    </g>
</svg>